<?xml version="1.0" encoding="UTF-8" standalone="no"?>
<!-- Created with Inkscape (http://www.inkscape.org/) -->

<svg
   width="428.18677mm"
   height="139.18867mm"
   viewBox="0 0 428.18677 139.18867"
   version="1.1"
   id="svg5"
   inkscape:version="1.3 (0e150ed6c4, 2023-07-21)"
   sodipodi:docname="partage ton pain.svg"
   xml:space="preserve"
   xmlns:inkscape="http://www.inkscape.org/namespaces/inkscape"
   xmlns:sodipodi="http://sodipodi.sourceforge.net/DTD/sodipodi-0.dtd"
   xmlns:xlink="http://www.w3.org/1999/xlink"
   xmlns="http://www.w3.org/2000/svg"
   xmlns:svg="http://www.w3.org/2000/svg"><sodipodi:namedview
     id="namedview7"
     pagecolor="#ffffff"
     bordercolor="#000000"
     borderopacity="0.25"
     inkscape:showpageshadow="2"
     inkscape:pageopacity="0.0"
     inkscape:pagecheckerboard="0"
     inkscape:deskcolor="#d1d1d1"
     inkscape:document-units="mm"
     showgrid="false"
     inkscape:zoom="2"
     inkscape:cx="5920"
     inkscape:cy="6738.75"
     inkscape:window-width="1920"
     inkscape:window-height="1009"
     inkscape:window-x="1912"
     inkscape:window-y="-8"
     inkscape:window-maximized="1"
     inkscape:current-layer="layer1" /><defs
     id="defs2"><linearGradient
       id="linearGradient4"
       inkscape:collect="always"><stop
         style="stop-color:#483e37;stop-opacity:1"
         offset="0"
         id="stop3" /><stop
         style="stop-color:#c3916f;stop-opacity:1;"
         offset="1"
         id="stop4" /></linearGradient><linearGradient
       id="linearGradient204"
       inkscape:collect="always"><stop
         style="stop-color:#9f6742;stop-opacity:1;"
         offset="0"
         id="stop204" /><stop
         style="stop-color:#be8863;stop-opacity:1;"
         offset="1"
         id="stop205" /></linearGradient><linearGradient
       id="linearGradient62"
       inkscape:collect="always"><stop
         style="stop-color:#bc835d;stop-opacity:1;"
         offset="0"
         id="stop62" /><stop
         style="stop-color:#bc835d;stop-opacity:0;"
         offset="1"
         id="stop63" /></linearGradient><linearGradient
       id="linearGradient182"
       inkscape:collect="always"><stop
         style="stop-color:#c98456;stop-opacity:1;"
         offset="0"
         id="stop182" /><stop
         style="stop-color:#b17044;stop-opacity:1;"
         offset="1"
         id="stop183" /></linearGradient><linearGradient
       id="linearGradient152"
       inkscape:collect="always"><stop
         style="stop-color:#9f6742;stop-opacity:1;"
         offset="0"
         id="stop151" /><stop
         style="stop-color:#bc835d;stop-opacity:1;"
         offset="1"
         id="stop152" /></linearGradient><linearGradient
       id="linearGradient129"
       inkscape:collect="always"><stop
         style="stop-color:#e2ab87;stop-opacity:1;"
         offset="0"
         id="stop129" /><stop
         style="stop-color:#e2ab87;stop-opacity:0;"
         offset="1"
         id="stop130" /></linearGradient><linearGradient
       id="linearGradient127"
       inkscape:collect="always"><stop
         style="stop-color:#e2ab87;stop-opacity:1;"
         offset="0"
         id="stop127" /><stop
         style="stop-color:#e2ab87;stop-opacity:0;"
         offset="1"
         id="stop128" /></linearGradient><linearGradient
       id="linearGradient122"
       inkscape:collect="always"><stop
         style="stop-color:#d28e5f;stop-opacity:1;"
         offset="0"
         id="stop122" /><stop
         style="stop-color:#d28e5f;stop-opacity:0;"
         offset="1"
         id="stop123" /></linearGradient><radialGradient
       inkscape:collect="always"
       xlink:href="#linearGradient62"
       id="radialGradient114"
       gradientUnits="userSpaceOnUse"
       gradientTransform="matrix(0.99763294,0.06876418,-0.02981029,0.43248874,62.60994,385.51128)"
       cx="1263.073"
       cy="394.95428"
       fx="1263.073"
       fy="394.95428"
       r="12.55195" /><linearGradient
       inkscape:collect="always"
       xlink:href="#linearGradient122"
       id="linearGradient114"
       gradientUnits="userSpaceOnUse"
       gradientTransform="translate(930.90499,-105.86367)"
       x1="376.34348"
       y1="774.43738"
       x2="378.9249"
       y2="756.36621" /><linearGradient
       inkscape:collect="always"
       xlink:href="#linearGradient152"
       id="linearGradient115"
       gradientUnits="userSpaceOnUse"
       gradientTransform="translate(930.90499,-105.86367)"
       x1="358.18719"
       y1="853.70331"
       x2="376.0726"
       y2="808.38489" /><linearGradient
       inkscape:collect="always"
       xlink:href="#linearGradient4"
       id="linearGradient116"
       gradientUnits="userSpaceOnUse"
       gradientTransform="translate(930.90499,-105.86367)"
       x1="359.91577"
       y1="853.69519"
       x2="423.40335"
       y2="786.2265" /><linearGradient
       inkscape:collect="always"
       xlink:href="#linearGradient127"
       id="linearGradient117"
       gradientUnits="userSpaceOnUse"
       gradientTransform="translate(930.90499,-105.86367)"
       x1="413.61865"
       y1="761.05798"
       x2="406.19366"
       y2="771.06165" /><linearGradient
       inkscape:collect="always"
       xlink:href="#linearGradient129"
       id="linearGradient124"
       gradientUnits="userSpaceOnUse"
       gradientTransform="translate(930.90499,-105.86367)"
       x1="422.69717"
       y1="748.07806"
       x2="415.89685"
       y2="757.60309" /><linearGradient
       inkscape:collect="always"
       xlink:href="#linearGradient182"
       id="linearGradient131"
       gradientUnits="userSpaceOnUse"
       x1="1308.1008"
       y1="396.5777"
       x2="1319.0851"
       y2="402.53082"
       gradientTransform="translate(47.84647,254.84328)" /><linearGradient
       inkscape:collect="always"
       xlink:href="#linearGradient204"
       id="linearGradient205"
       x1="1310.3159"
       y1="668.87146"
       x2="1321.0518"
       y2="652.12708"
       gradientUnits="userSpaceOnUse" /></defs><g
     inkscape:label="Layer 1"
     inkscape:groupmode="layer"
     id="layer1"
     transform="translate(-1135.7028,-1511.7357)"><g
       id="g2"
       transform="translate(-125.94167,891.11667)"
       inkscape:export-filename="..\..\..\Bureau\logo-image.png"
       inkscape:export-xdpi="96"
       inkscape:export-ydpi="96"><g
         id="g210"
         inkscape:export-filename="..\..\..\..\git\partage-ton-pain\media\logo-full.svg"
         inkscape:export-xdpi="96"
         inkscape:export-ydpi="96"
         transform="translate(0,-1.4920099)"><g
           id="g4"
           inkscape:export-filename="..\..\..\..\git\partage-ton-pain\media\logo.svg"
           inkscape:export-xdpi="96"
           inkscape:export-ydpi="96"><path
             style="color:#000000;fill:#e6e6e6;stroke-linecap:round;stroke-linejoin:round;-inkscape-stroke:none"
             d="m 1307.8184,622.61316 c -5.6761,0.18856 -10.8346,0.11457 -15.4394,1.39475 a 6.6152616,6.6152616 0 0 0 -0.5643,0.18551 c -3.5925,1.3573 -6.5653,3.44875 -9.9436,5.43171 -3.3121,1.94412 -6.7446,3.68381 -9.2051,4.36925 l -4.8731,0.7183 a 6.6152616,6.6152616 0 0 0 -5.6482,6.54327 v 6.90035 8.41034 a 6.6152616,6.6152616 0 0 0 6.92,6.60735 l 5.8906,-0.27337 c 0.073,0.0256 0.1394,0.0525 0.2129,0.078 2.7757,0.96155 6.1332,1.77049 9.6815,2.40192 a 6.6152616,6.6152616 0 0 0 -5.1154,5.22087 l -9.3927,72.49635 a 6.6152616,6.6152616 0 0 0 -0.016,0.14056 c -0.2355,2.18494 0.04,4.31759 0.6407,6.21461 0.038,0.12688 0.039,0.37536 0.078,0.47646 -0.032,-0.0836 -0.034,-0.3084 -0.064,-0.4098 0.015,0.047 0.018,0.1016 0.033,0.14832 l -0.2186,-1.34979 c -0.028,-0.27416 -0.1096,-0.37003 -0.1096,-0.709 a 6.6152616,6.6152616 0 0 0 0.3457,2.11356 c 0.7847,2.32842 2.1182,4.35673 3.744,5.97638 0,0.002 3e-4,0.006 0.01,0.008 0.019,0.0197 0.036,0.0391 0.1483,0.14831 a 6.6152616,6.6152616 0 0 0 0.01,0.006 c 0.2907,0.28166 0.5759,0.53444 0.85,0.76533 0.1042,0.0878 0.1997,0.16791 0.2868,0.23823 a 6.6152616,6.6152616 0 0 0 0.014,0.0103 c 0.2333,0.18745 0.5105,0.40428 0.8397,0.63666 0.2369,0.16724 0.3663,0.2461 0.3716,0.2496 a 6.6152616,6.6152616 0 0 0 0.01,0.006 c 0.1682,0.11223 0.4459,0.3022 0.8496,0.53898 0.3568,0.20914 0.5183,0.28775 0.3943,0.21911 a 6.6152616,6.6152616 0 0 0 0.01,0.004 c 0.4605,0.25407 0.9369,0.49072 1.4278,0.70693 0.105,0.0466 0.3438,0.1605 0.7343,0.31264 a 6.6152616,6.6152616 0 0 0 0.01,0.004 c 0.3623,0.14054 0.5794,0.20802 0.6444,0.23047 0.2075,0.0719 0.4767,0.16305 0.8108,0.26149 a 6.6152616,6.6152616 0 0 0 0,0.002 c 0.2675,0.0787 0.4796,0.13137 0.6309,0.17002 0.2927,0.075 0.5847,0.14301 0.8785,0.20309 a 6.6152616,6.6152616 0 0 0 0.01,0 c 0.1327,0.027 0.3331,0.0698 0.6015,0.11524 v -0.002 c 0.3858,0.0655 0.7283,0.10945 1.0232,0.14263 -0.048,-0.005 0.1182,0.023 0.4904,0.0548 0.4697,0.04 0.9879,0.0682 1.5524,0.0682 h 14.0823 54.5879 c 9.2942,0 16.9872,-7.63563 17.0837,-16.91008 a 6.6152616,6.6152616 0 0 0 -0.01,-0.447 l -4.0468,-70.50991 c 5.4475,-9.32485 9.7896,-18.08063 11.6835,-25.91212 1.0135,-4.1909 1.4482,-8.23301 0.3907,-12.29692 -1.0574,-4.06391 -4.2741,-7.9829 -8.43,-9.68158 -4.9924,-2.0406 -10.5818,-1.46985 -15.1267,0.67386 -4.3857,2.06865 -8.1268,5.3623 -11.6644,9.34155 -0.7667,0.70038 -1.0965,1.24257 -0.4413,0.48059 -1.741,1.99642 -3.4155,4.21533 -5.0586,6.54327 l -3.5662,-3.81269 a 6.6152616,6.6152616 0 0 0 -0.1287,-0.0568 6.6152616,6.6152616 0 0 0 -4.7465,-2.10736 h -0.3338 c -1.5517,-2.51559 -3.2355,-4.76732 -5.3377,-6.7753 -1.3857,-1.42235 -1.7875,-1.36454 -2.3109,-1.62678 -0.5465,-0.27382 -1.0625,-0.49532 -1.631,-0.72863 -1.1369,-0.46664 -2.4611,-0.95159 -3.9041,-1.45108 -2.886,-0.99897 -6.164,-2.02249 -8.7555,-2.69751 a 6.6152616,6.6152616 0 0 0 -1.0098,-0.18138 6.6152616,6.6152616 0 0 0 -0.877,-0.0295 z"
             id="path209" /><path
             style="color:#000000;fill:#d6d6d6;stroke-linecap:round;stroke-linejoin:round;-inkscape-stroke:none"
             d="m 1307.8027,622.11328 c -5.6617,0.18808 -10.8561,0.10479 -15.5586,1.41211 a 0.50005,0.50005 0 0 0 0,0.002 c -0.2052,0.0574 -0.4082,0.12366 -0.6074,0.19922 -3.6653,1.3851 -6.6637,3.49702 -10.0195,5.4668 -3.2873,1.92958 -6.7033,3.65037 -9.0684,4.3125 l -4.8281,0.71289 c -3.486,0.51514 -6.0757,3.51324 -6.0762,7.03711 v 6.90039 8.41016 c 6e-4,4.05111 3.3966,7.29404 7.4434,7.10742 l 5.7891,-0.26953 c 0.04,0.0151 0.075,0.0287 0.1269,0.0469 2.3547,0.8157 5.244,1.44954 8.1719,2.0293 -2.0029,0.9618 -3.5003,2.78287 -3.9317,5.02734 a 0.50005,0.50005 0 0 0 -0.01,0.0293 l -9.3926,72.49609 a 0.50005,0.50005 0 0 0 0,0.002 c -0.01,0.0497 -0.012,0.10057 -0.018,0.15039 -0.2436,2.26071 0.042,4.46008 0.6621,6.41797 0,-0.0103 0.01,0.0646 0.018,0.15234 8e-4,0.007 0.01,0.0202 0.01,0.0273 0.01,0.0813 0,0.14593 0.064,0.32422 4e-4,9.4e-4 -3e-4,0.001 0,0.002 a 0.50005,0.50005 0 0 0 0.1407,0.11133 c 0.8167,2.23649 2.0921,4.20596 3.666,5.78516 0,0.005 0.012,0.0234 0.012,0.0234 10e-5,1.1e-4 0.015,0.0135 0.025,0.0234 0,0.001 0,6.8e-4 0,0.002 0.024,0.0224 0.052,0.0505 0.053,0.0508 0.022,0.0222 0.028,0.0319 0.1055,0.10742 a 0.50005,0.50005 0 0 0 0.019,0.0156 c 0.2978,0.28805 0.5889,0.54683 0.8672,0.78125 0.1047,0.0882 0.2024,0.16944 0.2949,0.24414 a 0.50005,0.50005 0 0 0 0.018,0.0137 c 0,0.004 0.011,0.008 0.016,0.0117 0.2344,0.18807 0.5119,0.40494 0.8457,0.64062 0.1233,0.087 0.2199,0.15317 0.2871,0.19727 0.034,0.022 0.06,0.037 0.078,0.0488 0.019,0.0118 0.078,0.0526 0.019,0.0137 a 0.50005,0.50005 0 0 0 0.02,0.01 c 0.1641,0.10958 0.4505,0.30672 0.8633,0.54883 0.1832,0.10739 0.3168,0.18099 0.3945,0.22266 0.02,0.0104 0.034,0.018 0.049,0.0254 0.01,0.004 0.014,0.007 0.023,0.0117 0.01,0.004 0.048,0.0191 0.065,0.0254 0,10e-4 0.013,0.006 0.014,0.006 0.4345,0.23537 0.8772,0.46116 1.3379,0.66406 0.086,0.0381 0.349,0.16451 0.7539,0.32226 l 0.01,0.002 a 0.50005,0.50005 0 0 0 0.01,0.002 c 0.3748,0.14538 0.6296,0.2251 0.6622,0.23633 0.2099,0.0727 0.4865,0.16827 0.83,0.26953 8e-4,2.2e-4 0,-2.2e-4 0,0 a 0.50005,0.50005 0 0 0 0,0.002 c 0.2782,0.0819 0.5002,0.13596 0.6484,0.17383 0.2998,0.0768 0.5997,0.1471 0.9024,0.20899 a 0.50005,0.50005 0 0 0 0.02,0.002 c 0.1285,0.0262 0.3348,0.0707 0.6094,0.11719 a 0.50005,0.50005 0 0 0 0,-0.002 c 0.3758,0.0637 0.7045,0.10554 0.9941,0.13868 0,3.2e-4 0,0.002 0.01,0.002 0.011,0.002 0.019,0.003 0.025,0.004 0.01,7e-4 0.015,10e-4 0.022,0.002 0.023,0.004 0.044,0.007 0.08,0.0117 0.09,0.0114 0.2317,0.0265 0.4239,0.043 0.4808,0.0409 1.0126,0.0703 1.5937,0.0703 h 14.082 54.5879 c 9.5681,0 17.4847,-7.85626 17.584,-17.4043 0,-0.16034 -7e-4,-0.32037 -0.01,-0.48047 l -4.0391,-70.37304 c 5.4176,-9.28759 9.7573,-18.02757 11.6621,-25.9043 1.0231,-4.23054 1.4749,-8.36464 0.3887,-12.53906 -1.0999,-4.22725 -4.4031,-8.25314 -8.7246,-10.01954 -5.1436,-2.1024 -10.8724,-1.51102 -15.5293,0.68555 -4.4717,2.1092 -8.2614,5.45326 -11.8243,9.46094 -0.3762,0.34816 -0.6488,0.64729 -0.7792,0.82031 -0.017,0.0226 -0.033,0.042 -0.051,0.0703 -0.01,0.0141 -0.02,0.03 -0.033,0.0566 -0.01,0.0133 -0.014,0.0299 -0.024,0.0547 -0.01,0.0163 -0.013,0.048 -0.02,0.0781 -1.4586,1.71708 -2.8724,3.56542 -4.2559,5.50586 l -3.166,-3.38477 a 0.50005,0.50005 0 0 0 -0.1582,-0.11328 c -0.043,-0.0196 -0.087,-0.0379 -0.1308,-0.0566 -1.3101,-1.32955 -3.0717,-2.12527 -4.9434,-2.15234 a 0.50005,0.50005 0 0 0 -0.01,0 h -0.072 c -1.521,-2.4347 -3.1764,-4.64894 -5.2402,-6.62305 l -0.01,-0.004 c -1.419,-1.45466 -2.0346,-1.51984 -2.4394,-1.72265 -0.5627,-0.28191 -1.093,-0.50898 -1.666,-0.74414 -1.1505,-0.47222 -2.4815,-0.95966 -3.9297,-1.46094 -2.8969,-1.00272 -6.1817,-2.02881 -8.793,-2.70899 -0.3564,-0.093 -0.7194,-0.15654 -1.0859,-0.19336 -0.3063,-0.0307 -0.6143,-0.0423 -0.9219,-0.0332 a 0.50005,0.50005 0 0 0 -0.035,0 z m 0.01,1 h 0.023 a 0.50005,0.50005 0 0 0 0.014,0 c 0.2706,-0.009 0.5412,3.2e-4 0.8106,0.0273 0.315,0.0317 0.6272,0.088 0.9336,0.16797 2.5717,0.66987 5.8416,1.69033 8.7167,2.68555 1.4379,0.4977 2.7556,0.98035 3.879,1.44141 0.5639,0.23145 1.0653,0.44716 1.5957,0.71289 0.6413,0.32133 0.8304,0.1464 2.1777,1.52929 a 0.50005,0.50005 0 0 0 0.012,0.0117 c 2.0636,1.97113 3.721,4.18624 5.2578,6.67774 a 0.50005,0.50005 0 0 0 0.4258,0.23633 h 0.3262 c 1.6672,0.0241 3.2526,0.72874 4.3886,1.94921 a 0.50005,0.50005 0 0 0 0.168,0.11719 c 0.01,0.004 0.02,0.009 0.029,0.0137 l 3.4981,3.73828 a 0.50005,0.50005 0 0 0 0.7734,-0.0527 c 1.6368,-2.31904 3.3029,-4.52444 5.0273,-6.50195 4e-4,-3.7e-4 -3e-4,-0.002 0,-0.002 9e-4,-10e-4 0,-9.1e-4 0,-0.002 a 0.50005,0.50005 0 0 0 0,-0.0254 c 0.125,-0.13682 0.1893,-0.22287 0.3965,-0.41211 a 0.50005,0.50005 0 0 0 0.035,-0.0371 c 3.5124,-3.95081 7.2042,-7.19261 11.5039,-9.2207 4.4329,-2.09084 9.8835,-2.64286 14.7247,-0.66406 3.9902,1.63096 7.1198,5.44513 8.1347,9.3457 1.0288,3.95339 0.6114,7.90148 -0.3926,12.05273 -1.8728,7.74453 -6.1918,16.47029 -11.6289,25.77735 a 0.50005,0.50005 0 0 0 -0.066,0.28125 l 4.0469,70.50976 c 0.01,0.1376 0.01,0.27431 0.01,0.41211 a 0.50005,0.50005 0 0 0 0,0.002 c -0.094,9.00084 -7.5636,16.41406 -16.584,16.41406 h -54.5879 -14.082 c -0.5478,0 -1.0512,-0.0274 -1.5098,-0.0664 -0.1799,-0.0154 -0.3087,-0.0297 -0.3828,-0.0391 -0.029,-0.004 -0.042,-0.005 -0.051,-0.006 0,6.6e-4 0.01,0.002 0.014,0.004 0.01,10e-4 0.026,0.006 0.025,0.006 -2e-4,-6e-5 0.084,0.0332 0.084,0.0332 0,0 -0.022,0.0417 -0.027,0.0527 a 0.50005,0.50005 0 0 0 -0.1387,-0.10351 c 0,-1.3e-4 0,1.2e-4 0,0 -0.2881,-0.0325 -0.6196,-0.0754 -0.9922,-0.13867 a 0.50005,0.50005 0 0 0 0,0.002 c -0.2553,-0.0433 -0.4435,-0.0855 -0.5801,-0.11328 a 0.50005,0.50005 0 0 0 -0.01,0 c 0,-5.4e-4 -0.01,-10e-4 -0.01,-0.002 -0.2823,-0.0579 -0.5646,-0.12279 -0.8476,-0.19531 -0.1539,-0.0393 -0.3556,-0.0889 -0.6114,-0.16406 a 0.50005,0.50005 0 0 0 0,-0.002 c -0.3237,-0.0954 -0.5845,-0.18496 -0.7891,-0.25586 -0.097,-0.0334 -0.2776,-0.0878 -0.6211,-0.22071 l -0.01,-0.002 -0.01,-0.004 c -0.3761,-0.14652 -0.5887,-0.24956 -0.7129,-0.30468 -0.4769,-0.21006 -0.9409,-0.44045 -1.3887,-0.6875 a 0.50005,0.50005 0 0 0 -0.01,-0.004 0.50005,0.50005 0 0 0 -0.047,-0.0234 l -0.01,-0.004 c -0.066,-0.036 -0.1693,-0.0937 -0.3261,-0.18555 -0.3894,-0.22836 -0.6527,-0.40765 -0.8262,-0.52344 a 0.50005,0.50005 0 0 0 -0.012,-0.008 l -0.01,-0.006 -0.01,-0.006 c 10e-4,8.6e-4 -0.011,-0.005 -0.018,-0.01 -0.014,-0.009 -0.035,-0.024 -0.064,-0.043 -0.058,-0.038 -0.1442,-0.0956 -0.2578,-0.17578 -0.3176,-0.22414 -0.5871,-0.43295 -0.8164,-0.61719 a 0.50005,0.50005 0 0 0 -0.012,-0.01 v -0.004 c 0,-0.003 -0.01,-0.007 -0.014,-0.01 -0.078,-0.0633 -0.1644,-0.13673 -0.2618,-0.21875 -0.2672,-0.22514 -0.5435,-0.47022 -0.8242,-0.74219 a 0.50005,0.50005 0 0 0 -0.01,-0.006 l -0.01,-0.006 c -0.096,-0.0932 -0.1027,-0.10167 -0.1309,-0.13086 a 0.50005,0.50005 0 0 0 -0.016,-0.008 c 0.012,0.0114 0.028,0.0255 0.027,0.0254 -7e-4,-7.5e-4 0.1017,0.19796 0.1015,0.19727 -2e-4,-6.9e-4 0.018,0.113 0.018,0.125 a 0.50005,0.50005 0 0 0 -0.1465,-0.34766 0.50005,0.50005 0 0 0 0,-0.006 c -1.5748,-1.56882 -2.8651,-3.53396 -3.6231,-5.7832 -0.1405,-0.41741 -0.1631,-0.85841 -0.2109,-1.29492 v -0.004 c -0.024,-0.22062 -0.1076,-0.43171 -0.1075,-0.6543 a 0.50005,0.50005 0 0 0 -0.1269,-0.125 c -0.2518,-1.34722 -0.3925,-2.74451 -0.2363,-4.19335 a 0.50005,0.50005 0 0 0 0,-0.002 c 0,-0.0427 0.01,-0.0843 0.016,-0.12695 v -0.002 l 9.3906,-72.47461 c 0.4674,-2.40891 2.3242,-4.30402 4.7246,-4.81641 a 0.50005,0.50005 0 0 0 -0.016,-0.98047 c -3.5293,-0.62805 -6.8657,-1.43369 -9.6055,-2.38281 -0.059,-0.0204 -0.124,-0.0457 -0.2109,-0.0762 a 0.50005,0.50005 0 0 0 -0.1895,-0.0293 l -5.8906,0.27344 c -3.4907,0.16097 -6.396,-2.61298 -6.3965,-6.10742 v -8.41016 -6.90039 c 5e-4,-3.03542 2.2179,-5.60509 5.2207,-6.04883 l 4.8731,-0.71875 a 0.50005,0.50005 0 0 0 0.062,-0.0117 c 2.5554,-0.71187 5.9943,-2.46538 9.3242,-4.41992 3.4002,-1.99583 6.3482,-4.06502 9.8672,-5.39453 a 0.50005,0.50005 0 0 0 0,-0.002 c 0.1712,-0.065 0.3451,-0.1206 0.5215,-0.16993 4.5006,-1.25122 9.6182,-1.18891 15.2988,-1.37695 z m -32.9258,132.10352 c 0.029,0.006 0.066,0.0176 0.1133,0.041 0.024,0.0117 0.077,0.0453 0.076,0.0449 -3e-4,-2.3e-4 0.027,0.0251 0.051,0.0469 a 0.50005,0.50005 0 0 0 -0.2403,-0.13281 z m 3.8067,2.84179 c -10e-5,-10e-6 0.02,0.004 0.035,0.008 a 0.50005,0.50005 0 0 0 -0.5293,0.20898 c 0,-0.007 0.012,-0.0371 0.012,-0.0371 0,0 0.1348,-0.11914 0.1348,-0.11914 0,0 0.3477,-0.0605 0.3477,-0.0606 z m -0.545,0.38282 a 0.50005,0.50005 0 0 0 0.1661,0.51757 c -0.01,-0.004 -0.029,-0.0216 -0.029,-0.0215 0,7e-5 -0.031,-0.0274 -0.031,-0.0273 10e-5,5e-5 -0.066,-0.0801 -0.066,-0.0801 0,0 -0.045,-0.0781 -0.045,-0.0781 0,0 -0.041,-0.1582 -0.041,-0.1582 0,0 0.024,-0.0774 0.047,-0.15234 z m 7.4766,2.58007 c 0,0.006 0.029,0.0352 0.029,0.0352 0,0 -0.076,0.0547 -0.076,0.0547 10e-5,-1e-5 -0.1875,0.0606 -0.1875,0.0605 3e-4,-2e-5 -0.07,0.004 -0.08,0.004 -0.019,-9e-4 -0.02,-0.002 -0.021,-0.002 a 0.50005,0.50005 0 0 0 0.3359,-0.15235 z"
             id="path210" /><path
             id="path101"
             style="fill:#895b3c;fill-opacity:1;stroke:none;stroke-width:2.64583;stroke-linecap:round;stroke-linejoin:round;stroke-dasharray:none;stroke-opacity:1"
             d="m 1308.1652,640.55847 c 1.6771,1.36496 3.4194,3.14989 4.8317,5.43791 l 1.6599,-1.77508 c -1.6295,-2.03542 -2.7447,-2.93196 -3.7393,-3.56154 z"
             sodipodi:nodetypes="ccccc" /><path
             id="path102"
             style="fill:#ae734c;fill-opacity:1;stroke:none;stroke-width:2.64583;stroke-linecap:round;stroke-linejoin:round;stroke-dasharray:none;stroke-opacity:1"
             d="m 1310.9175,640.65976 c 0.9946,0.6296 2.1098,1.52612 3.7393,3.56154 l 1.4061,-1.50327 h 0.045 0.1938 c -0.5465,-0.65653 -1.5427,-1.40683 -3.359,-2.00815 -0.6752,-0.0155 -1.3505,-0.0319 -2.0257,-0.0501 z"
             sodipodi:nodetypes="cccccccc" /><path
             id="path103"
             style="fill:url(#linearGradient131);fill-opacity:1;stroke:none;stroke-width:2.5803;stroke-linecap:round;stroke-linejoin:round;stroke-dasharray:none;stroke-opacity:1"
             d="m 1339.94,655.08936 v 16.3626 h 22.4335 c 11.6781,-19.57153 17.6133,-36.29871 7.8535,-40.28792 -9.9604,-4.07124 -20.5979,7.25151 -30.287,23.92532 z"
             sodipodi:nodetypes="cccsc" /><path
             id="path104"
             style="fill:url(#linearGradient124);fill-opacity:1;stroke:none;stroke-width:2.60903;stroke-linecap:round;stroke-linejoin:round;stroke-dasharray:none;stroke-opacity:1"
             d="m 1351.9881,638.22091 c -1.968,2.07501 -3.9232,4.51742 -5.8575,7.22075 2.0409,0.13127 4.1607,0.46102 7.7829,3.22306 4.2714,3.25709 3.9903,-5.85193 -1.9254,-10.44381 z"
             sodipodi:nodetypes="ccsc" /><path
             id="path105"
             style="fill:url(#linearGradient117);fill-opacity:1;stroke:none;stroke-width:2.60903;stroke-linecap:round;stroke-linejoin:round;stroke-dasharray:none;stroke-opacity:1"
             d="m 1342.415,651.00411 c -0.8304,1.32518 -1.6569,2.67754 -2.4748,4.08502 v 4.15427 c 3.0553,1.48542 4.4991,2.85376 6.4937,5.40122 2.8316,3.61654 4.235,-10.6484 -4.0189,-13.64051 z"
             sodipodi:nodetypes="cccsc" /><path
             id="path106"
             style="fill:#c3916f;fill-opacity:1;stroke:none;stroke-width:2.60903;stroke-linecap:round;stroke-linejoin:round;stroke-dasharray:none;stroke-opacity:1"
             d="m 1331.996,642.78694 v 28.66502 h -30.5247 v 82.73283 h 54.5868 c 5.766,0 10.4098,-4.61342 10.4697,-10.36474 l -4.1543,-72.36809 H 1339.94 v -20.21954 l -7.899,-8.44548 z"
             sodipodi:nodetypes="ccccscccccc" /><path
             id="path107"
             style="fill:#bc835d;fill-opacity:1;stroke:none;stroke-width:2.61978;stroke-linecap:round;stroke-linejoin:round;stroke-dasharray:none;stroke-opacity:1"
             d="m 1286.313,671.45196 -9.3911,72.49635 c -0.6481,6.01548 4.7435,10.23658 10.467,10.23658 h 14.0824 v -82.73293 z"
             sodipodi:nodetypes="ccsccc" /><path
             id="path108"
             style="color:#000000;fill:url(#linearGradient116);fill-opacity:1;stroke:none;stroke-width:1.65907;stroke-linecap:round;stroke-linejoin:round;stroke-dasharray:none;stroke-opacity:1"
             d="m 1334.5398,684.43642 c -1.1912,0 -2.1674,0.9392 -2.1674,2.0859 v 13.7392 h -14.7418 c -0.7705,0 -1.4098,0.6121 -1.4098,1.3538 v 2.8606 c 0,0.7419 0.6393,1.3538 1.4098,1.3538 h 14.7418 v 35.5777 c 0,1.1469 0.9762,2.0859 2.1674,2.0859 h 1.4496 c 1.1912,0 2.1674,-0.939 2.1674,-2.0859 v -35.5777 h 14.7454 c 0.7704,0 1.4062,-0.6119 1.4062,-1.3538 v -2.8606 c 0,-0.7417 -0.6358,-1.3538 -1.4062,-1.3538 h -14.7454 v -13.7392 c 0,-1.1467 -0.9762,-2.0859 -2.1674,-2.0859 z" /><path
             id="path109"
             style="fill:url(#linearGradient115);fill-opacity:1;stroke:none;stroke-width:0.619123;stroke-linecap:round;stroke-linejoin:round;stroke-dasharray:none;stroke-opacity:1"
             d="m 1301.4713,678.44585 -24.3861,68.32968 c 0.9991,4.46613 5.5292,7.40936 10.3037,7.40936 h 14.0824 z" /><path
             id="path110"
             style="fill:#b47b55;fill-opacity:1;stroke:none;stroke-width:2.64583;stroke-linecap:round;stroke-linejoin:round;stroke-dasharray:none;stroke-opacity:1"
             d="m 1312.9427,640.70988 c 1.8169,0.60138 2.8124,1.35149 3.359,2.00815 l 4.4221,-2.3e-4 -3.2233,-1.8963 c -1.7362,-0.0487 -3.1042,-0.078 -4.5578,-0.11162 z"
             sodipodi:nodetypes="ccccc" /><path
             id="path111"
             style="fill:url(#linearGradient205);fill-opacity:1;stroke:none;stroke-width:2.60903;stroke-linecap:round;stroke-linejoin:round;stroke-dasharray:none;stroke-opacity:1"
             d="m 1316.0631,642.7178 -7.8987,8.44599 v 20.28817 h 7.9442 V 650.6615 h 15.8874 v -7.87446 h 5e-4 v -0.0692 h -15.8879 z"
             sodipodi:nodetypes="ccccccccccc" /><path
             id="path112"
             style="fill:#ddaa88;fill-opacity:1;stroke:none;stroke-width:2.60903;stroke-linecap:round;stroke-linejoin:round;stroke-dasharray:none;stroke-opacity:1"
             d="m 1306.9804,630.30107 c -5.6207,0.18672 -10.2627,-0.62838 -12.8097,0.0797 -4.4858,1.69481 -12.6808,8.14536 -19.9585,10.07536 l -5.4343,0.80098 v 15.31018 l 7.211,-0.33383 c 6.9932,2.6576 18.6377,5.15858 28.6778,1.75648 7.3814,-2.50108 20.4967,-3.8131 25.0233,-6.9665 -4.9502,-6.00458 -25.7896,-0.36814 -27.8412,-2.38745 -0.034,-2.29277 -0.4645,-3.39638 -0.8361,-4.6762 1.93,-0.74919 3.0665,-1.95027 4.9966,-3.57187 2.033,0.2695 6.1773,0.28456 11.4912,0.43356 l 3.2236,1.89653 h 7.1551 c -1.9355,-4.12039 -3.3604,-6.014 -6.2249,-8.72505 -0.7286,-0.77003 -10.0486,-2.48713 -14.6739,-3.69191 z"
             sodipodi:nodetypes="ccccccsccccccccc" /><path
             id="path113"
             style="fill:url(#linearGradient114);fill-opacity:1;stroke:none;stroke-width:2.64583;stroke-linecap:round;stroke-linejoin:round;stroke-dasharray:none;stroke-opacity:1"
             d="m 1276.9991,647.67586 c -2.8439,-6e-4 -5.5297,0.24299 -8.2212,0.4806 v 8.41085 l 7.211,-0.33383 c 6.9931,2.6576 18.6377,5.15858 28.6778,1.75648 7.3814,-2.50107 20.4967,-3.8131 25.0233,-6.9665 -0.2403,-0.29151 -0.5285,-0.54766 -0.8398,-0.78651 -11.6156,2.58082 -22.9885,6.63439 -33.8718,1.37097 -7.1783,-3.12337 -12.8405,-3.93097 -17.9793,-3.93206 z" /><path
             id="path114"
             style="fill:url(#radialGradient114);fill-opacity:1;stroke:none;stroke-width:0.264583;stroke-linecap:round;stroke-linejoin:round"
             d="m 1304.6173,637.56307 c -1.1329,2.37324 -3.059,4.25066 -5.6885,5.68854 l 2.1311,0.86558 c -0.016,-0.0527 -0.032,-0.10443 -0.047,-0.15761 1.93,-0.74919 3.0665,-1.95028 4.9966,-3.57187 2.033,0.2695 6.1771,0.28479 11.491,0.43379 l 3.2233,1.8963 h 3.3089 c -1.6007,-1.07353 -2.8003,-1.26473 -5.2602,-4.22869 -4.7921,-0.15383 -9.9249,0.4077 -14.1552,-0.92604 z"
             sodipodi:nodetypes="cccccccccc" /></g></g><g
         id="g200"
         transform="matrix(1.420191,0,0,1.3919116,2131.775,-186.85065)"
         style="fill:#4d4d4d;fill-opacity:1"><path
           d="m -492.10022,599.57414 q 0,2.93777 -1.35927,5.34937 -1.35927,2.36775 -4.03395,3.77087 -2.63084,1.40311 -6.40171,1.40311 h -3.85856 v 9.86564 h -9.7341 v -31.04388 h 13.59266 q 5.70015,0 8.72562,2.89392 3.06931,2.89392 3.06931,7.76097 z m -12.89111,2.85007 q 3.02546,0 3.02546,-2.85007 0,-2.85008 -3.02546,-2.85008 h -2.76238 v 5.70015 z m 35.8671,12.84726 h -10.34796 l -1.53466,4.69166 h -10.21642 l 11.35645,-31.04388 h 11.22491 l 11.3126,31.04388 h -10.26026 z m -2.36775,-7.3225 -2.80623,-8.63791 -2.80623,8.63791 z m 31.96471,12.01416 -5.83169,-11.13721 h -0.0438 v 11.13721 h -9.7341 v -31.04388 h 14.46961 q 3.77087,0 6.44555,1.35926 2.67469,1.31542 3.99011,3.63933 1.35927,2.28006 1.35927,5.17398 0,3.11316 -1.7539,5.52476 -1.71004,2.4116 -4.95474,3.46394 l 6.75248,11.88261 z m -5.87554,-17.62661 h 3.85857 q 1.40311,0 2.10467,-0.61386 0.70155,-0.65771 0.70155,-2.01698 0,-1.22772 -0.7454,-1.92928 -0.70156,-0.70156 -2.06082,-0.70156 h -3.85857 z m 44.0227,-13.41727 v 7.71712 h -8.24329 v 23.32676 h -9.73411 v -23.32676 h -8.15559 v -7.71712 z m 22.53748,26.35222 h -10.34797 l -1.53465,4.69166 h -10.21642 l 11.35645,-31.04388 h 11.22491 l 11.3126,31.04388 h -10.26027 z m -2.36776,-7.3225 -2.80622,-8.63791 -2.80623,8.63791 z m 35.3848,-8.41868 q -0.57001,-0.92079 -1.62235,-1.40311 -1.05234,-0.52617 -2.54314,-0.52617 -2.80623,0 -4.34089,1.84159 -1.53465,1.79774 -1.53465,4.95474 0,3.63933 1.71004,5.43707 1.71005,1.79774 5.26168,1.79774 3.37624,0 5.43706,-2.71854 h -7.76097 v -6.88402 h 15.82888 v 9.7341 q -2.01698,3.46394 -5.56861,5.96323 -3.55163,2.45545 -8.9887,2.45545 -4.8232,0 -8.41868,-1.97313 -3.55163,-2.01697 -5.48091,-5.61245 -1.88543,-3.59548 -1.88543,-8.19945 0,-4.60396 1.88543,-8.19944 1.92928,-3.59548 5.48091,-5.56861 3.55163,-2.01698 8.33099,-2.01698 6.09477,0 9.90949,2.93777 3.85856,2.93777 4.56012,7.98021 z m 23.67758,-2.85007 v 3.81471 h 9.6464 v 7.3225 h -9.6464 v 4.38473 h 10.96182 v 7.76097 h -20.69592 v -31.04388 h 20.69592 v 7.76097 z"
           id="path198"
           style="font-weight:bold;font-size:43.8473px;font-family:'Poppins Black';-inkscape-font-specification:'Poppins Black,  Bold';fill:#4d4d4d;fill-opacity:1;stroke-width:5.13835;stroke-linecap:round;stroke-linejoin:round"
           aria-label="PARTAGE" /><path
           d="m -504.78767,642.86788 v 3.75038 h -4.0061 v 11.33639 h -4.73059 v -11.33639 h -3.96348 v -3.75038 z m 8.63012,15.23593 q -2.1309,0 -3.92085,-1.00152 -1.76865,-1.00152 -2.81279,-2.77017 -1.04414,-1.76865 -1.04414,-3.98478 0,-2.21614 1.04414,-3.98479 1.04414,-1.76864 2.81279,-2.74886 1.78995,-1.00152 3.92085,-1.00152 2.1309,0 3.89955,1.00152 1.76865,0.98022 2.79148,2.74886 1.04414,1.76865 1.04414,3.98479 0,2.21613 -1.04414,3.98478 -1.02283,1.76865 -2.81279,2.77017 -1.76864,1.00152 -3.87824,1.00152 z m 0,-4.41096 q 1.4064,0 2.17352,-0.89498 0.76713,-0.91628 0.76713,-2.45053 0,-1.55556 -0.76713,-2.45054 -0.76712,-0.91628 -2.17352,-0.91628 -1.4277,0 -2.19482,0.91628 -0.76713,0.89498 -0.76713,2.45054 0,1.53425 0.76713,2.45053 0.76712,0.89498 2.19482,0.89498 z m 23.90871,4.2618 h -4.7306 l -5.00762,-7.586 v 7.586 h -4.7306 v -15.08677 h 4.7306 l 5.00762,7.71386 v -7.71386 h 4.7306 z"
           id="path199"
           style="font-weight:bold;font-size:21.309px;font-family:'Poppins Black';-inkscape-font-specification:'Poppins Black,  Bold';fill:#4d4d4d;fill-opacity:1;stroke-width:2.49714;stroke-linecap:round;stroke-linejoin:round"
           aria-label="TON" /><path
           d="m -425.93932,642.67988 q 0,4.16945 -1.92915,7.59212 -1.92914,3.36045 -5.7252,5.35183 -3.73383,1.99137 -9.08566,1.99137 h -5.47628 v 14.00187 h -13.81517 v -44.0592 h 19.29145 q 8.08997,0 12.38387,4.10721 4.35614,4.10722 4.35614,11.0148 z m -18.29577,4.04499 q 4.29391,0 4.29391,-4.04499 0,-4.04498 -4.29391,-4.04498 h -3.92052 v 8.08997 z m 50.90456,18.23353 h -14.6864 l -2.17807,6.65867 h -14.4997 l 16.1177,-44.0592 h 15.931 l 16.05547,44.0592 h -14.56193 z m -3.36045,-10.39249 -3.98275,-12.25941 -3.98275,12.25941 z m 37.02719,-27.00804 v 44.0592 h -13.81517 v -44.0592 z m 48.47759,44.0592 h -13.81517 l -14.62417,-22.15406 v 22.15406 h -13.81517 v -44.0592 h 13.81517 l 14.62417,22.52744 v -22.52744 h 13.81517 z"
           id="path200"
           style="font-weight:bold;font-size:62.2305px;font-family:'Poppins Black';-inkscape-font-specification:'Poppins Black,  Bold';fill:#4d4d4d;fill-opacity:1;stroke-width:7.29262;stroke-linecap:round;stroke-linejoin:round"
           aria-label="PAIN" /></g></g></g></svg>
